<?xml version="1.0" encoding="UTF-8"?><svg id="Layer_1" xmlns="http://www.w3.org/2000/svg" xmlns:xlink="http://www.w3.org/1999/xlink" viewBox="0 0 4864 1656.47"><defs><style>.cls-1{fill:url(#linear-gradient);}.cls-1,.cls-2,.cls-3{stroke-width:0px;}.cls-2{fill:#292433;}.cls-3{fill:url(#linear-gradient-2);}</style><linearGradient id="linear-gradient" x1="434.61" y1="268.33" x2="979.28" y2="1444.33" gradientUnits="userSpaceOnUse"><stop offset="0" stop-color="#a50014"/><stop offset=".11" stop-color="#aa0113"/><stop offset=".24" stop-color="#b90510"/><stop offset=".38" stop-color="#d10c0b"/><stop offset=".51" stop-color="#ef1506"/><stop offset=".61" stop-color="#ed2106"/><stop offset=".78" stop-color="#e94209"/><stop offset=".93" stop-color="#e5640c"/></linearGradient><linearGradient id="linear-gradient-2" x1="-2403.93" y1="23828.58" x2="-2239.67" y2="24047.59" gradientTransform="translate(23970.76 -2712) rotate(74.87)" gradientUnits="userSpaceOnUse"><stop offset="0" stop-color="#a50014"/><stop offset="0" stop-color="#a70013"/><stop offset=".07" stop-color="#c1080e"/><stop offset=".15" stop-color="#d50d0a"/><stop offset=".24" stop-color="#e41108"/><stop offset=".34" stop-color="#ec1406"/><stop offset=".51" stop-color="#ef1506"/><stop offset=".61" stop-color="#ed2106"/><stop offset=".78" stop-color="#e94209"/><stop offset=".93" stop-color="#e5640c"/></linearGradient></defs><path class="cls-2" d="m2192.58,1065.98h-331.16l-56.9,161.6h-135.42l283.36-792.06h150.22l283.36,792.06h-136.56l-56.9-161.6Zm-36.42-105.84l-128.6-367.58-129.73,367.58h258.33Z"/><path class="cls-2" d="m2693.18,617.03c31.47-17.82,68.85-26.74,112.09-26.74v134.29h-33c-50.84,0-89.33,12.91-115.51,38.69-26.17,25.8-39.26,70.56-39.26,134.29v330.02h-129.73v-627.05h129.73v91.04c18.95-31.87,44.19-56.7,75.68-74.54Z"/><path class="cls-2" d="m3246.24,910.07l202.57,317.51h-146.81l-135.42-212.81-127.46,212.81h-135.42l202.57-308.4-202.57-318.64h146.81l135.42,212.81,127.46-212.81h135.42l-202.57,309.54Z"/><path class="cls-2" d="m4129.28,600.53v627.05h-129.74v-73.97c-20.48,25.8-47.23,46.09-80.23,60.88-33,14.79-68.1,22.19-105.26,22.19-49.33,0-93.51-10.24-132.58-30.73-39.08-20.49-69.81-50.82-92.18-91.04-22.39-40.21-33.57-88.77-33.57-145.67v-368.72h128.6v349.37c0,56.16,14.03,99.21,42.11,129.16,28.06,29.98,66.38,44.95,114.94,44.95s87.06-14.97,115.51-44.95c28.45-29.96,42.67-73.01,42.67-129.16v-349.37h129.74Z"/><path class="cls-2" d="m4363.24,1211.08c-39.08-17.82-69.99-42.1-92.75-72.83-22.76-30.72-34.9-65.04-36.42-102.99h134.29c2.28,26.56,14.97,48.76,38.12,66.57,23.13,17.83,52.15,26.74,87.06,26.74s64.67-7,84.78-21.05c20.09-14.03,30.16-32.05,30.16-54.06,0-23.51-11.2-40.97-33.57-52.35-22.39-11.39-57.86-23.9-106.4-37.56-47.05-12.89-85.35-25.41-114.94-37.56-29.59-12.12-55.19-30.72-76.81-55.76-21.62-25.03-32.43-58.04-32.43-99.01,0-33.38,9.85-63.9,29.59-91.61,19.72-27.69,47.97-49.5,84.78-65.44,36.79-15.93,79.09-23.9,126.89-23.9,71.3,0,128.77,18.03,172.41,54.06,43.62,36.04,66.95,85.17,69.99,147.37h-129.73c-2.28-28.06-13.66-50.45-34.14-67.14-20.48-16.68-48.19-25.03-83.07-25.03s-60.32,6.45-78.52,19.34c-18.21,12.91-27.31,29.98-27.31,51.21,0,16.7,6.06,30.73,18.21,42.11,12.13,11.38,26.92,20.31,44.38,26.74,17.44,6.45,43.25,14.62,77.39,24.47,45.52,12.14,82.88,24.47,112.09,36.99,29.2,12.52,54.43,30.92,75.68,55.19,21.23,24.29,32.24,56.53,33,96.73,0,35.67-9.87,67.53-29.59,95.59-19.74,28.08-47.62,50.07-83.64,66.01-36.04,15.93-78.34,23.9-126.89,23.9s-93.51-8.93-132.58-26.74Z"/><path class="cls-1" d="m1110.61,1297.77c-43.32-343.53-127.25-626.9-272.34-870.24-180.02-301.94-420.62-236.24-432.26-49.03-4.78,76.87,52.34,133.15,109.4,184.89,164.98,149.56,361.48,379.64,402.17,596.66,10.04,53.56-71.98-13.39-145.63-46.87-105.97-48.17-306.89-112.27-294.6-20.09,3.35,25.11,91.94,58.59,154.83,103.78,86.2,61.93,154.41,119.54,245.22,193.33,113.04,91.84,245.19,41.66,233.2-92.43Z"/><path class="cls-3" d="m310.42,1184.46c32.97,20.18,7.46,164.08-21.41,211.25-28.87,47.17-88.52,43.67-118.66,27.28-33.19-18.04-58.57-70.9-29.7-118.08,30.52-49.87,136.32-140.93,169.77-120.46Z"/></svg>